<svg width="520" height="140" viewBox="0 0 520 140" fill="none" xmlns="http://www.w3.org/2000/svg">
  <rect width="520" height="140" rx="28" fill="#050710"/>
  <g>
    <rect x="20" y="20" width="100" height="100" rx="20" fill="#050710" stroke="url(#paint0_linear_1_1)" stroke-width="4"/>
    <path d="M70 30L36 46V84C36 107.946 50.797 129.095 70 135C89.203 129.095 104 107.946 104 84V46L70 30Z" fill="url(#paint1_linear_1_1)"/>
    <path d="M52 82.5L65.5 96L88 68" stroke="#050710" stroke-width="9" stroke-linecap="round" stroke-linejoin="round"/>
    <path d="M70 38L44 50.5V84C44 104.443 56.661 123.316 74 129.5C91.339 123.316 104 104.443 104 84V50.5L70 38Z" stroke="url(#paint2_linear_1_1)" stroke-width="5"/>
  </g>
  <g transform="translate(140,40)">
    <text x="0" y="36" fill="#EEF2FB" font-family="Inter, Arial, sans-serif" font-size="40" font-weight="700">Talos Protocol</text>
    <text x="0" y="72" fill="#9FB4D5" font-family="Inter, Arial, sans-serif" font-size="18" font-weight="500">Secure, decentralized communication for the AI agent era</text>
  </g>
  <defs>
    <linearGradient id="paint0_linear_1_1" x1="20" y1="20" x2="140" y2="140" gradientUnits="userSpaceOnUse">
      <stop stop-color="#6BE7FF"/>
      <stop offset="1" stop-color="#7EF2C9"/>
    </linearGradient>
    <linearGradient id="paint1_linear_1_1" x1="36" y1="30" x2="120" y2="124" gradientUnits="userSpaceOnUse">
      <stop stop-color="#6BE7FF"/>
      <stop offset="1" stop-color="#A78BFA"/>
    </linearGradient>
    <linearGradient id="paint2_linear_1_1" x1="48" y1="43" x2="124" y2="123" gradientUnits="userSpaceOnUse">
      <stop stop-color="#6BE7FF"/>
      <stop offset="1" stop-color="#7EF2C9"/>
    </linearGradient>
  </defs>
</svg>
