<svg xmlns="http://www.w3.org/2000/svg" width="1200" height="630" viewBox="0 0 1200 630" fill="none">
  <rect width="1200" height="630" rx="28" fill="#050710"/>
  <rect x="48" y="48" width="1104" height="534" rx="24" stroke="#1F2B42" stroke-width="2" fill="url(#bg)"/>
  <circle cx="210" cy="180" r="160" fill="url(#g1)" fill-opacity="0.12"/>
  <circle cx="930" cy="140" r="200" fill="url(#g2)" fill-opacity="0.12"/>
  <circle cx="640" cy="430" r="220" fill="url(#g3)" fill-opacity="0.12"/>
  <g transform="translate(120,130)">
    <rect x="0" y="0" width="140" height="140" rx="28" fill="#050710" stroke="url(#g2)" stroke-width="4"/>
    <path d="M70 18 22 40v72c0 28.223 16.356 55.28 44 68 27.644-12.72 44-39.777 44-68V40L70 18Z" fill="url(#g1)"/>
    <path d="m48 82 22 22 30-38" stroke="#050710" stroke-width="8" stroke-linecap="round" stroke-linejoin="round"/>
    <path d="M70 28 30 48v64c0 23.198 12.909 45.306 34 52 21.091-6.694 34-28.802 34-52V48L70 28Z" stroke="url(#g3)" stroke-width="6"/>
  </g>
  <text x="320" y="220" fill="#EEF2FB" font-family="Inter, Arial, sans-serif" font-size="56" font-weight="700">Talos Protocol</text>
  <text x="320" y="280" fill="#9FB4D5" font-family="Inter, Arial, sans-serif" font-size="28" font-weight="500">Secure, decentralized communication for the AI agent era</text>
  <text x="320" y="340" fill="#7EF2C9" font-family="Inter, Arial, sans-serif" font-size="24" font-weight="600">Capability-based auth • Forward secrecy • Verifiable audit trail</text>
  <rect x="320" y="380" width="360" height="78" rx="16" fill="#0C1224" stroke="#1F2B42" />
  <text x="340" y="430" fill="#6BE7FF" font-family="Inter, Arial, sans-serif" font-size="22" font-weight="700">Docs</text>
  <text x="420" y="430" fill="#A78BFA" font-family="Inter, Arial, sans-serif" font-size="22" font-weight="700">GitHub</text>
  <text x="540" y="430" fill="#7EF2C9" font-family="Inter, Arial, sans-serif" font-size="22" font-weight="700">Contact</text>
  <defs>
    <linearGradient id="g1" x1="0" y1="0" x2="180" y2="180" gradientUnits="userSpaceOnUse">
      <stop stop-color="#6BE7FF"/>
      <stop offset="1" stop-color="#A78BFA"/>
    </linearGradient>
    <linearGradient id="g2" x1="60" y1="20" x2="260" y2="200" gradientUnits="userSpaceOnUse">
      <stop stop-color="#6BE7FF"/>
      <stop offset="1" stop-color="#7EF2C9"/>
    </linearGradient>
    <linearGradient id="g3" x1="80" y1="40" x2="280" y2="240" gradientUnits="userSpaceOnUse">
      <stop stop-color="#7EF2C9"/>
      <stop offset="1" stop-color="#A78BFA"/>
    </linearGradient>
    <linearGradient id="bg" x1="150" y1="90" x2="1050" y2="540" gradientUnits="userSpaceOnUse">
      <stop stop-color="#0C1224" stop-opacity="0.9"/>
      <stop offset="1" stop-color="#050710" stop-opacity="0.9"/>
    </linearGradient>
  </defs>
</svg>
